# xmcd
#
# Track frame offsets:
#	150
#	19935
#	37912
#	56822
#	80832
#
# Disc length: 1490
#
# Revision: 1
# Processed by: cddbd v1.5.1PL0 Copyright (c) Steve Scherf et al.
# Submitted via: CDex 1.51
# Normalized: r0:TDELIM( - )
#
DISCID=3b05d005
DTITLE=New World Music - The Spirit Of Columbia
DYEAR=1994
DGENRE=New Age
TTITLE0=Savana Dance - Deep Forest
TTITLE1=Tell Me Why - Danny Red
TTITLE2=Without A Smile - youssou N'Dour
TTITLE3=Elgeebar - Davy Spillane
TTITLE4=O Saathi Re - Bally Sagoo
EXTD=YEAR: 1994
EXTT0=
EXTT1=
EXTT2=
EXTT3=
EXTT4=
PLAYORDER=
